<svg height='100px' width='100px'  fill="#000000" xmlns="http://www.w3.org/2000/svg" viewBox="0 0 48 48" x="0px" y="0px"><title>Saving-Money</title><g><path d="M43.438,25.563a5.008,5.008,0,0,0-7.075,0l-2.491,2.491A6.106,6.106,0,0,0,34,26.87V17.13A6.138,6.138,0,0,0,28,11V9.722A1.993,1.993,0,0,0,29,8V5a1,1,0,0,0-1-1H20a1,1,0,0,0-1,1V8a1.993,1.993,0,0,0,1,1.722V11a6.138,6.138,0,0,0-6,6.129v9.74c0,.082.01.158.013.238A5,5,0,0,0,12,28V27a1,1,0,0,0-1-1H5a1,1,0,0,0-1,1V43a1,1,0,0,0,1,1h6a1,1,0,0,0,1-1V42H28a1,1,0,0,0,.707-.293l14.731-14.73a1,1,0,0,0,0-1.414ZM21,6h6V8H21ZM16,17.13A4.135,4.135,0,0,1,20.13,13H21a1,1,0,0,0,1-1V10h4v2a1,1,0,0,0,1,1h.87A4.135,4.135,0,0,1,32,17.13v9.74a4.082,4.082,0,0,1-1.782,3.391c-.031-.014-.066-.019-.1-.032a3.181,3.181,0,0,0-.387-.127c-.056-.014-.11-.031-.166-.042A2.983,2.983,0,0,0,29,30H23.583A4.991,4.991,0,0,0,19,27H16c0-.043,0-.086,0-.13ZM10,42H6V28h4Zm17.586-2H12V32a2.675,2.675,0,0,1,.09-.711c0-.014.005-.028.009-.042A2.987,2.987,0,0,1,15,29h4a2.987,2.987,0,0,1,2.9,2.247A1,1,0,0,0,22.87,32H29a1.019,1.019,0,0,1,.616.217.943.943,0,0,1,.334.494c0,.012.011.021.014.032l0,0A.806.806,0,0,1,30,33a.978.978,0,0,1-.306.712A.957.957,0,0,1,29,34H18v2H29a3.017,3.017,0,0,0,3-3c0-.077-.012-.152-.018-.228l5.8-5.795a3.074,3.074,0,0,1,3.418-.586Z"></path><rect x="7" y="30" width="2" height="2"></rect><path d="M22,27h1v1h2V27h1a2,2,0,0,0,2-2V23a2,2,0,0,0-2-2H22V19h4v1h2V19a2,2,0,0,0-2-2H25V16H23v1H22a2,2,0,0,0-2,2v2a2,2,0,0,0,2,2h4v2H22V24H20v1A2,2,0,0,0,22,27Z"></path></g></svg>