<svg height='100px' width='100px'  fill="#000000" xmlns="http://www.w3.org/2000/svg" xmlns:xlink="http://www.w3.org/1999/xlink" version="1.1" x="0px" y="0px" viewBox="0 0 128 128" style="enable-background:new 0 0 128 128;" xml:space="preserve"><path d="M126,114h-16V64c0-1.1044998-0.8955078-2-2-2c-1.1045074,0-2,0.8955002-2,2v50H22V64c0-1.1044998-0.895504-2-2-2  c-1.1045036,0-2,0.8955002-2,2v50H2c-1.1045039,0-2,0.8955002-2,2s0.8954962,2,2,2h124c1.1044922,0,2-0.8955002,2-2  S127.1044922,114,126,114z"></path><path d="M118.4570007,61.3700981c0.7568893-0.8046989,0.7177887-2.0702972-0.0869064-2.8270988L68.5175934,11.6758003  c-2.3467026-2.2090006-6.1786995-2.2178001-8.5390968-0.0205002L9.6371956,58.5360985  c-0.8085995,0.7530022-0.8534994,2.0186005-0.1005993,2.8272018C9.9301958,61.7860985,10.4647961,62,11.0004959,62  c0.4877996,0,0.9770002-0.1777,1.3622999-0.5360985l50.3422966-46.8819008  c0.8330002-0.7772999,2.2412033-0.7743998,3.0722046,0.0078001l49.8525925,46.8672028  C116.4345932,62.2128983,117.7001953,62.1738014,118.4570007,61.3700981z"></path><path d="M43.3593941,45.4668007l20.3896065-18.892601c0.2382927-0.2216988,0.4081955-0.3642006,0.5273972-0.4559994  c0.1180954,0.0917988,0.2870941,0.2353001,0.5233994,0.4559994l19.8262024,18.7519989  c0.8026962,0.7578011,2.0673981,0.7236023,2.827095-0.0790977c0.7587967-0.8017998,0.7237015-2.0684013-0.0790939-2.8272018  L67.5410004,23.6611004c-2.3721085-2.2196999-4.135704-2.2245998-6.5117073-0.0205002L40.6405945,42.5331993  c-0.8099976,0.7509995-0.8583984,2.0156021-0.107399,2.8262024C40.9271965,45.7851982,41.4628944,46,42.0004959,46  C42.4867935,46,42.9745941,45.8232002,43.3593941,45.4668007z"></path><path d="M101,38c1.1044922,0,2-0.8955002,2-2v-20.044899C103,13.7743998,101.2490005,12,99.0956955,12h-6.1913986  C90.7509995,12,89,13.7743998,89,15.9551001v9.7783003c0,1.1044998,0.8954926,2,2,2c1.1044922,0,2-0.8955002,2-2V16h6v20  C99,37.1044998,99.8954926,38,101,38z"></path><path d="M43.7538948,87.8906021c0.9696999,1.1904984,12.4936981,14.7646942,17.7099991,20.9072952  C62.1435928,109.5986023,63.0907936,110,64.0380936,110c0.9307022,0,1.8633041-0.3877029,2.5439072-1.1650009  c0,0,16.7050934-19.7666016,17.664093-20.944397C87.8427963,83.4756012,90,77.8612976,90,71.7461014  C90,57.5264015,78.3603973,46,64,46S38,57.5264015,38,71.7461014C38,77.8612976,40.157196,83.4756012,43.7538948,87.8906021z   M64,60.2226982c6.4286957,0,11.6386948,5.1590996,11.6386948,11.5234032c0,6.3651962-5.2099991,11.5233994-11.6386948,11.5233994  c-6.4277039,0-11.6387062-5.1582031-11.6387062-11.5233994C52.3612938,65.3817978,57.5722961,60.2226982,64,60.2226982z"></path><ellipse cx="63.9999962" cy="71.7461014" rx="7.6387" ry="7.5233998"></ellipse></svg>