<svg height='100px' width='100px'  fill="#000000" xmlns="http://www.w3.org/2000/svg" xmlns:xlink="http://www.w3.org/1999/xlink" version="1.1" x="0px" y="0px" viewBox="0 0 100 100" enable-background="new 0 0 100 100" xml:space="preserve"><g><g><path fill="#000000" d="M58.84766,77.46582L58.7998,77.1543c-0.10156-0.63379,0.4248-2.33105,1.03418-4.29785    c0.58008-1.87305,1.30176-4.20508,1.95215-7.00488c1.53223-6.59473,5.43848-29.11816-8.60742-42.08594    c-1.87695-1.7334-4.44336-2.74512-7.0415-2.77539c-0.97217-0.0166-1.94531,0.07324-2.88525,0.15527    c-1.51562,0.13184-2.94629,0.25488-4.31592-0.00293c-1.81445-0.34473-2.62012-0.22754-2.76172-0.20215    c-0.53369,0.09961-0.87842,0.60547-0.79199,1.14062c0.08643,0.53613,0.59961,0.90039,1.13428,0.83008    c0.00537,0,0.60205-0.07715,2.04736,0.19629c0.10815,0.02039,0.21594,0.02417,0.32404,0.04077    c0.03278,0.03735,0.05237,0.0824,0.09149,0.11548c2.57312,2.17358,3.23645,4.56787,3.40375,5.50903    c-0.79718,1.69409-3.68274,7.91919-5.4516,12.95874c-2.8833,8.21191-0.68018,16.75586,1.44971,25.01855    c0.53906,2.08984,1.04785,4.06348,1.47559,6.03027c0.56726,2.60779,1.922,4.22168,3.6394,5.30518l0.36792,1.88721    c-1.9458,0.04004-3.33838,0.49902-4.14795,1.36816c-0.62549,0.67188-0.77197,1.47461-0.70752,1.95801    c0.06738,0.50488,0.50244,0.89258,0.99902,0.89258c0.04199,0,0.08398-0.00293,0.12695-0.00879    c0.54736-0.07227,0.93408-0.55078,0.86133-1.09863C40.99561,83.06348,41,82.87305,41.22363,82.66016    c0.26233-0.24976,1.15094-0.8064,3.70868-0.66492c0.39526,0.11511,1.95221,0.64771,1.96045,1.85449    c-0.0484-0.00427-0.08972-0.00842-0.13983-0.01282c-2.09863-0.1875-4.46924,0.59766-4.56934,0.63184    c-0.52393,0.17383-0.80713,0.74023-0.63232,1.26465c0.17432,0.52344,0.73877,0.80664,1.26514,0.63184    c0.5708-0.19043,2.35791-0.66016,3.76318-0.53613c1.58447,0.1377,2.24219,0.25195,2.67773,0.32715    c0.50293,0.08691,0.77393,0.12695,1.47998,0.09277c1.13281-0.05664,1.875-0.93848,2.30664-1.69531    c1.3418,0.6543,3.81836,1.75195,5.66699,1.94141C58.74512,86.49805,58.7793,86.5,58.81348,86.5    c0.50684,0,0.94141-0.38281,0.99414-0.89844c0.05566-0.54883-0.34375-1.04004-0.89355-1.09668    c-1.63251-0.16748-4.03967-1.27625-5.20013-1.85156l0.0517-0.22168c0.61719-2.64941,1.25586-5.38965,2.2207-7.94629    c0.10156-0.26953,0.22754-0.5752,0.36328-0.90625c0.76562-1.86621,1.81445-4.42188,1.15625-6.28711    c-0.36829-1.04321-1.5636-1.61511-2.4317-1.90564c0.03967-1.42432,0.08752-2.78149,0.32428-4.14807    c0.27539-1.5918,0.84863-3.09863,1.45703-4.69531c0.63184-1.65918,1.28516-3.375,1.58301-5.21289    c0.44238-2.72852-0.14844-5.57812-1.8584-8.96777c-0.24805-0.49316-0.84961-0.69336-1.34277-0.44238    c-0.49316,0.24805-0.69141,0.84961-0.44238,1.34277c1.51074,2.99414,2.04102,5.45605,1.66895,7.74707    c-0.26465,1.6377-0.85449,3.18359-1.47754,4.82129c-0.61523,1.61523-1.25098,3.28418-1.55859,5.06641    c-0.27734,1.60156-0.32031,3.19043-0.36133,4.72559c-0.00189,0.07104-0.00476,0.13855-0.00665,0.20923    c-0.01056,0.03394-0.03314,0.06079-0.04022,0.09644c-0.03119,0.15576-0.01556,0.30664,0.02289,0.45032    c-0.02197,0.71204-0.04895,1.41211-0.10883,2.10632c-2.79346-5.28418-3.42236-11.48438-1.75781-17.61328l0.2168-0.78613    c0.5957-2.14355,1.11035-3.99414,0.68359-6.56543c-0.43262-2.60352-0.7998-4.9502-0.89453-7.30762    c-0.08594-2.13184-0.27197-4.42871-1.04443-6.77539c-0.03967-0.12085-0.10474-0.22522-0.18097-0.31812    c0.53601-0.7854,1.79266-1.97375,4.2876-1.31982c10.33447,12.48352,6.96686,31.69226,5.59503,37.59888    c-0.63477,2.73047-1.34473,5.02344-1.91602,6.86621c-0.79395,2.56348-1.27344,4.11133-1.09766,5.20605l0.04492,0.29395    c0.2627,1.73633,0.80859,5.34766,4.7002,7.94238c0.1709,0.11328,0.36328,0.16797,0.55371,0.16797    c0.32324,0,0.64062-0.15625,0.83301-0.44531c0.30664-0.45996,0.18262-1.08008-0.27734-1.38672    C59.52344,81.93945,59.08398,79.0293,58.84766,77.46582z M49.46582,49.5498l-0.22021,0.79883    c-1.93555,7.12598-0.99414,14.35645,2.69971,20.43164c0.26367,0.3584,0.73828,0.7207,1.29492,0.7207    c0.10938,0,0.22266-0.01367,0.33789-0.04492c1.07617-0.28906,1.23242-1.69238,1.29102-2.2207    c0.0639-0.57715,0.10284-1.15381,0.13141-1.72632c0.32855,0.15723,0.57355,0.32422,0.61859,0.44897    c0.40527,1.14551-0.5127,3.38184-1.12012,4.86133c-0.14355,0.35059-0.27637,0.6748-0.38379,0.95898    c-1.01172,2.68164-1.66504,5.4873-2.29688,8.2002l-0.2193,0.93701c-0.17468,0.53662-0.64545,1.32007-0.96136,1.33545    c-0.51318,0.02832-0.625,0.00684-1.03906-0.06543c-0.18359-0.03174-0.4068-0.06995-0.70709-0.11328    c0.15784-2.08838-1.57434-3.31982-2.93939-3.84204l-0.20587-1.05579c0.68958,0.25793,1.40198,0.47461,2.12091,0.66638    c0.08643,0.02344,0.17334,0.03418,0.2583,0.03418c0.44189,0,0.84668-0.29492,0.96582-0.74219    c0.14209-0.53418-0.1748-1.08203-0.7085-1.22363c-3.51514-0.9375-5.84082-2.19434-6.57178-5.55469    c-0.43555-2.00293-0.97314-4.08789-1.49268-6.10449c-2.05566-7.97266-4.18164-16.2168-1.5-23.85645    c1.65997-4.72729,4.33521-10.55029,5.25708-12.52002c0.01709-0.01465,0.0376-0.02478,0.05365-0.04053l4.18323,0.50439    c0.62244,2.02283,0.79419,4.0553,0.87079,5.95557c0.1001,2.47363,0.47607,4.88574,0.92041,7.55566    C50.45801,45.98242,50.0415,47.47852,49.46582,49.5498z M48.10449,28.29785l-3.88593-0.46875    c-0.28223-1.11377-0.93719-2.83081-2.42596-4.57446c0.54865-0.02979,1.09454-0.07007,1.63269-0.11694    c0.93262-0.08105,1.81152-0.16504,2.68848-0.14746c2.10938,0.02441,4.18994,0.84277,5.70752,2.24414    c0.14465,0.13354,0.27606,0.27417,0.41669,0.40991C50.13306,25.86548,48.77942,27.16235,48.10449,28.29785z"></path><circle fill="#000000" cx="45.61444" cy="25.01611" r="1"></circle></g></g></svg>