<svg height='100px' width='100px'  fill="#000000" xmlns="http://www.w3.org/2000/svg" xmlns:xlink="http://www.w3.org/1999/xlink" version="1.1" x="0px" y="0px" viewBox="0 0 100 100" enable-background="new 0 0 100 100" xml:space="preserve"><path d="M30.828,77.831l-1.071-0.962c0.277,1.118,0.585,2.065,0.913,2.853L30.828,77.831z"></path><path d="M32.236,76.57l-0.616,1.092l0.666,0.925C32.217,77.991,32.177,77.286,32.236,76.57z"></path><path d="M30.693,76.752l-0.527-3.173l-1.233-1.427c0.152,1.308,0.341,2.473,0.554,3.517L30.693,76.752z"></path><polygon points="26.863,53.918 28.512,50.482 24.193,51.306 "></polygon><path d="M26.443,62.146c0.238,0.127,0.444,0.247,0.626,0.4l0.605-3.148l-4.245-0.906c0.445,1.01,1.051,1.969,1.722,2.681  C25.688,61.742,26.09,61.957,26.443,62.146z"></path><path d="M30.364,66.731l-2.286-1.873c0.199,1.018,0.38,2.473,0.589,4.623L30.364,66.731z"></path><path d="M33.518,82.998c0.032,0.004,0.058,0.006,0.079,0.006c-0.002-0.33-0.357-1.157-0.557-1.62  c-0.179-0.416-0.341-0.804-0.441-1.143l-1.133-1.574L31.28,80.98C32.027,82.289,32.821,82.916,33.518,82.998z"></path><path d="M36.782,69.328l-3.205,0.314v3.866c0.18-0.151,0.374-0.29,0.6-0.403C35.369,72.509,36.106,70.942,36.782,69.328z"></path><path d="M38.949,53.462c-0.233-0.132-0.472-0.27-0.71-0.414l0.344,2.192l2.711,2.06c0.017-0.36,0.034-0.719,0.035-1.094  C41.331,54.88,40.426,54.299,38.949,53.462z"></path><path d="M35.371,49.901c-0.086-0.242-0.271-0.519-0.516-0.813l-1.986,4.032l3.902-1.14C36.192,51.448,35.689,50.79,35.371,49.901z"></path><path d="M36.306,60.872l4.182,1.111c0.323-0.994,0.554-2.063,0.688-3.216L36.306,60.872z"></path><path d="M39.945,63.386l-4.204,2.287l1.601,2.313c0.351-0.821,0.712-1.572,1.155-2.149C39.072,65.086,39.547,64.266,39.945,63.386z"></path><polygon points="33.496,57.465 32.196,60.984 34.997,60.622 37.494,56.078 "></polygon><polygon points="30.942,61.379 28.308,59.699 27.694,63.042 "></polygon><polygon points="31.197,62.049 27.859,63.757 30.575,65.983 "></polygon><polygon points="27.584,54.062 31.519,53.436 29.219,50.656 "></polygon><path d="M29.666,49.471l4.298-1.282c-0.89-0.783-2.077-1.598-3.258-2.237L29.666,49.471z"></path><polygon points="32.582,69.139 30.882,67.244 29.053,70.21 "></polygon><polygon points="33.457,56.725 37.075,55.469 32.716,54.212 "></polygon><polygon points="35.578,61.416 35.578,64.95 39.944,62.576 "></polygon><polygon points="33.469,53.688 37.814,54.94 37.436,52.53 "></polygon><polygon points="32.376,69.947 28.884,71.006 30.464,72.834 "></polygon><polygon points="38.366,55.971 36.034,60.214 41.08,58.033 "></polygon><polygon points="35.262,66.233 33.846,68.899 36.901,68.6 "></polygon><polygon points="29.756,50.188 32.115,53.038 34.167,48.872 "></polygon><path d="M67.673,59.479l-4.094-1.395c0,0.005-0.002,0.01-0.002,0.015l1.576,4.819L67.673,59.479z"></path><polygon points="82.562,30.167 85.137,30.167 84.886,27.588 "></polygon><path d="M71.326,31.005c-0.339,0.183-0.669,0.384-0.993,0.587c-0.455,0.286-0.928,0.58-1.43,0.811l1.948,0.467  c0.025-0.014,0.051-0.022,0.077-0.032L71.326,31.005z"></path><polygon points="84.439,27.02 82.519,26.784 82.232,29.468 "></polygon><polygon points="54.896,44.159 55.504,47.288 58.658,44.501 "></polygon><path d="M57.636,26.073l-1.56,0.266l-0.898,1.849C55.689,27.942,56.466,27.334,57.636,26.073z"></path><path d="M58.474,20.783c-0.398,0.385-0.853,0.686-1.384,0.745c-0.046,0.005-0.086,0.011-0.12,0.017c0.04,0.08,0.09,0.172,0.13,0.249  c0.184,0.341,0.423,0.808,0.485,1.348l2.088-0.858L58.474,20.783z"></path><polygon points="84.522,30.879 82.042,30.879 81.445,33.367 "></polygon><path d="M26.795,44.91c-0.261,0.262-0.592,0.539-0.953,0.804l3.138,3.566l1.081-3.659c-0.726-0.352-1.428-0.624-2.031-0.759  C27.131,44.66,26.858,44.848,26.795,44.91z"></path><polygon points="70.508,25.379 68.669,23.124 67.837,25.721 "></polygon><polygon points="71.657,26.201 72.212,29.094 72.219,29.099 74.5,27.436 "></polygon><path d="M62.451,19.671l1.753,1.472l2.977-2.451l-1.084-1.201c-0.108,0.436-0.351,0.788-0.743,0.978l-0.412,0.203  C64.212,19.033,63.307,19.478,62.451,19.671z"></path><polygon points="31.399,65.334 34.416,61.416 31.968,61.732 "></polygon><polygon points="69.353,22.882 71.199,25.106 72.852,23.262 "></polygon><path d="M73.498,61.4c0.167-0.154,0.346-0.292,0.539-0.409c0.655-0.399,0.725-1.59,0.639-2.916l-2.8,2.136L73.498,61.4z"></path><path d="M65.618,15.17l0.934-2.124c-0.644-0.014-1.351-0.008-2.142,0.027c-0.198,0.009-0.364,0.037-0.549,0.054L65.618,15.17z"></path><path d="M28.606,40.064c-0.091-0.11-0.832-0.361-1.678-0.224c0.002,0.079,0.008,0.184,0.021,0.32  c0.021,0.046,0.222,0.174,0.654,0.183C28.134,40.359,28.553,40.164,28.606,40.064z"></path><path d="M51.91,34.412c-0.778,1.374-1.32,2.867-1.383,4.33l2.479-1.81L51.91,34.412z"></path><path d="M25.554,39.186c-0.054-0.162-0.602-0.382-1.096-0.461c0.173,0.099,0.327,0.187,0.463,0.267  c0.22,0.127,0.431,0.249,0.58,0.325C25.519,39.271,25.538,39.225,25.554,39.186z"></path><path d="M24.142,47.666c0.389,0.68,0.313,1.687,0,2.925l4.317-0.824l-3.211-3.65c-0.678,0.422-1.416,0.758-2.067,0.845  C23.602,47.059,23.933,47.301,24.142,47.666z"></path><path d="M85.385,31.098l-3.528,2.852c0.091,0.012,0.184,0.026,0.274,0.038c0.436,0.055,0.889,0.124,1.401,0.284l3.362,0.412  L85.385,31.098z"></path><polygon points="77.812,38.261 79.371,36.063 75.967,35.579 "></polygon><path d="M74.544,56.626c-0.007-0.064-0.014-0.13-0.02-0.193c-0.085-0.783-0.165-1.544-0.182-2.245l-2.666,1.234L74.544,56.626z"></path><path d="M72.666,34.365c0.415,0.799,0.905,1.915,1.56,3.467c0.011,0.026,0.024,0.056,0.035,0.082l0.547-2.594L72.666,34.365z"></path><polygon points="75.805,27.282 78.235,28.665 78.249,24.929 "></polygon><path d="M75.571,31.764v2.781l2.138-1.028c0.008-0.068,0.026-0.134,0.057-0.198L75.571,31.764z"></path><polygon points="67.21,25.347 68.056,22.706 64.987,22.119 "></polygon><polygon points="13.923,29.667 14.428,31.814 17.269,30.172 "></polygon><path d="M16.189,38.397l-1.401-0.804l-0.855,3.378l2.241-0.351c-0.125-0.487-0.143-1.062-0.093-1.574  C16.096,38.895,16.134,38.661,16.189,38.397z"></path><polygon points="22.064,26.978 22.788,29.727 25.953,25.571 "></polygon><polygon points="30.588,21.456 29.292,20.631 29.291,20.632 27.926,23.597 "></polygon><path d="M30.703,19.378c-0.247,0.344-0.5,0.615-0.752,0.827l1.256,0.8l2.528-1.518l-1.41-1.976  C31.863,17.891,31.336,18.497,30.703,19.378z"></path><path d="M23.594,29.843l3.064-0.971c0.056-0.06,0.118-0.121,0.176-0.181l-0.165-2.885L23.594,29.843z"></path><polygon points="20.76,27.11 17.257,27.11 18.424,29.381 "></polygon><polygon points="24.02,22.077 22.473,20.463 20.687,20.459 20.703,22.077 "></polygon><polygon points="22.63,26.016 26.355,24.667 24.876,22.995 "></polygon><polygon points="21.448,27.435 19.105,29.713 22.149,30.102 "></polygon><path d="M24.121,35.662c0.052,0.15,0.105,0.302,0.162,0.441c0.024-0.698-0.05-1.752-0.089-2.293  c-0.009-0.125-0.015-0.229-0.023-0.342l-0.969,0.563C23.697,34.472,23.93,35.115,24.121,35.662z"></path><polygon points="20.828,22.789 21.776,25.971 24.145,22.789 "></polygon><path d="M44.001,10.762c-0.264,0.059-0.513,0.139-0.784,0.226c-0.588,0.188-1.329,0.412-2.495,0.555l2.908,1.323l1.147-2.254  C44.516,10.657,44.256,10.705,44.001,10.762z"></path><path d="M50.987,14.452L50.987,14.452c-0.308,0.014-0.526,0.091-0.597,0.212c-0.08,0.137-0.046,0.406,0.087,0.67  c0.007-0.027,0.276-0.01,0.667-0.188c0.4-0.182,0.704-0.468,0.775-0.731c0.004-0.016,0.008-0.031,0.011-0.045  c-0.075,0.007-0.158,0.016-0.232,0.023C51.494,14.415,51.256,14.44,50.987,14.452z"></path><path d="M78.485,61.127c0.093-0.733,0.122-1.381,0.065-1.733c-0.453,0.216-1.119,0.729-1.848,2.38L78.485,61.127z"></path><path d="M46.61,10.394l0.978,1.056l3.329-0.823C50.149,10.384,48.458,10.261,46.61,10.394z"></path><polygon points="23.37,20.369 24.774,21.833 25.718,20.046 "></polygon><path d="M76.468,62.617l1.312,1.463c0.242-0.582,0.443-1.37,0.582-2.151L76.468,62.617z"></path><path d="M76.129,63.305c-0.037,0.112-0.073,0.204-0.109,0.322c-0.452,1.459-0.234,1.924-0.113,1.979  c0.265,0.12,1.017-0.248,1.497-0.879L76.129,63.305z"></path><path d="M41.112,15.138l2.022-1.714l-3.306-1.504c0.003,0.513,0.548,1.661,0.999,2.61C40.919,14.724,41.016,14.933,41.112,15.138z"></path><path d="M46.858,11.709l-1.141-1.232c-0.025,0.003-0.051,0.007-0.076,0.01l-1.098,2.158L46.858,11.709z"></path><path d="M43.62,13.946l-2.201,1.866c0.119,0.265,0.239,0.53,0.352,0.807c0.171,0.416,0.354,0.666,0.514,0.703  c0.374,0.079,1.179-0.583,2.017-1.311L43.62,13.946z"></path><path d="M48.076,12.063l0.491,0.659c0.383-0.237,0.766-0.474,1.187-0.693c0.498-0.259,0.829-0.471,1.064-0.644L48.076,12.063z"></path><path d="M47.501,12.484l-1.028,1.702c0.46-0.362,0.952-0.724,1.489-1.083L47.501,12.484z"></path><polygon points="46.612,12.577 44.236,13.537 44.871,15.459 "></polygon><polygon points="32.617,57.79 28.847,59.198 31.477,60.875 "></polygon><polygon points="27.577,58.648 26.751,55.147 23.443,57.766 "></polygon><path d="M23.764,51.884c-0.161,0.497-0.34,1.016-0.536,1.564c-0.128,0.36-0.249,0.698-0.349,0.998  c-0.261,0.783-0.184,1.772,0.096,2.782l3.456-2.736L23.764,51.884z"></path><polygon points="18.035,30.552 14.901,32.363 18.478,34.447 "></polygon><path d="M34.678,17.755c-0.51-0.52-0.953-0.761-1.373-0.725c-0.12,0.009-0.246,0.048-0.375,0.101l1.489,2.087l0.848-0.863  c-0.123-0.127-0.247-0.253-0.369-0.376L34.678,17.755z"></path><path d="M36.019,21.881l-1.516-1.486l-1.472,3.569c0.134-0.074,0.263-0.151,0.4-0.222C34.642,23.107,35.506,22.485,36.019,21.881z"></path><path d="M34.879,19.766l1.533,1.503c0.07-0.151,0.124-0.301,0.147-0.45c0.103-0.67-0.289-1.322-0.812-1.937L34.879,19.766z"></path><polygon points="30.94,73.898 31.386,76.626 32.68,74.332 "></polygon><polygon points="28.227,58.3 31.369,54.181 27.404,54.812 "></polygon><polygon points="32.785,56.966 32.048,54.465 29.086,58.348 "></polygon><polygon points="32.864,73.644 32.864,70.501 31.077,73.199 "></polygon><polygon points="31.49,66.854 33.145,68.7 34.531,66.091 "></polygon><polygon points="34.866,65.272 34.866,61.998 31.739,66.057 "></polygon><path d="M27.347,25.198l0.162,2.817c0.921-0.886,2.014-1.796,3.262-2.657L27.347,25.198z"></path><path d="M22.964,30.791l-0.23,2.687l1.42-0.825c0.066-0.54,0.621-1.543,1.603-2.748L22.964,30.791z"></path><path d="M27.899,20.89c-0.544-0.052-1.06-0.281-1.508-0.593l-1.106,2.085l1.589,1.796l1.515-3.291  C28.214,20.903,28.048,20.905,27.899,20.89z"></path><polygon points="14.165,36.594 13.924,33.52 12.39,36.133 "></polygon><polygon points="31.613,21.589 32.26,23.966 33.773,20.295 "></polygon><polygon points="30.996,22.038 27.924,24.512 31.719,24.689 "></polygon><polygon points="18.733,30.383 19.17,34.228 21.95,30.795 "></polygon><path d="M14.126,37.308l-1.52-0.386c0.301,0.97,0.588,2.014,0.85,3.032L14.126,37.308z"></path><path d="M22.175,31.65l-1.721,2.126c0.594-0.194,1.112-0.272,1.56-0.236L22.175,31.65z"></path><path d="M18.126,35.066l-3.526-2.054l0.3,3.823l1.485,0.852C16.655,36.871,17.174,35.894,18.126,35.066z"></path><path d="M17.537,41.617c-0.037,0.017-0.077,0.008-0.115,0.02l0.349,1.237c0.009,0.003,0.018,0.006,0.027,0.008l1.941-0.73  c-0.149-0.439,0.003-0.972,0.183-1.539c0.088-0.276,0.243-0.762,0.233-0.98c-0.279,0.105-0.842,0.604-1.193,0.915  C18.463,40.992,17.99,41.411,17.537,41.617z"></path><path d="M20.932,45.166c0.186,0.223,0.369,0.443,0.553,0.648c-0.006-0.048-0.01-0.098-0.014-0.15c-0.093-1.769-0.46-2.8-1.033-2.904  c-0.061-0.011-0.11-0.031-0.162-0.049l-1.465,0.551C19.657,43.67,20.31,44.419,20.932,45.166z"></path><path d="M16.634,41.465c-0.058-0.051-0.112-0.106-0.16-0.17L14.46,41.61c0.66,0.443,1.593,0.748,2.503,1.02L16.634,41.465z"></path><path d="M59.462,15.81c-0.016,0.539,0.322,0.915,0.875,1.031l1.871-3.432C60.272,13.959,59.486,15.042,59.462,15.81z"></path><polygon points="69.945,44.489 74.919,44.263 70.363,41.466 "></polygon><polygon points="74.341,48.127 72.701,50.45 76.917,47.589 "></polygon><polygon points="69.486,64.471 67.766,67.399 70.76,67.399 "></polygon><polygon points="71.233,54.841 74.041,53.542 71.568,52.375 "></polygon><polygon points="71.409,60.753 70.281,62.995 72.962,61.892 "></polygon><polygon points="71.199,55.994 71.569,59.548 74.444,57.356 "></polygon><polygon points="70.671,45.17 74.041,47.327 75.793,44.936 "></polygon><polygon points="75.571,30.892 77.54,32.287 75.571,28.735 "></polygon><polygon points="78.963,24.737 78.949,28.533 81.592,26.419 "></polygon><polygon points="81.437,30.519 81.406,30.485 81.758,27.199 79.028,29.382 80.758,33.223 "></polygon><polygon points="75.391,35.998 74.765,38.973 77.191,38.614 "></polygon><polygon points="68.158,37.593 70.134,40.336 72.104,38.44 "></polygon><path d="M68.056,36.842l3.928,0.843c-0.767-1.648-1.17-2.678-1.358-3.33L68.056,36.842z"></path><polygon points="53.564,36.429 56.255,33.738 52.411,33.778 "></polygon><path d="M58.961,20.251l1.233,1.543l1.128-2.047c-0.509-0.075-0.952-0.332-1.26-0.872c-0.173,0.156-0.44,0.513-0.629,0.766  C59.285,19.837,59.128,20.046,58.961,20.251z"></path><polygon points="56.455,40.503 50.994,40.014 54.411,43.229 "></polygon><path d="M57.114,32.709l2.454-3.98c-0.557-0.09-1.128-0.075-1.79,0.055c-0.606,0.119-1.447,0.619-2.34,1.367L57.114,32.709z"></path><polygon points="56.047,39.751 53.428,37.504 50.974,39.297 "></polygon><polygon points="59.557,23.102 57.797,23.826 58.909,24.544 "></polygon><polygon points="63.41,21.407 61.913,20.151 60.935,21.925 "></polygon><polygon points="62.473,46.643 59.904,44.881 60.053,47.763 "></polygon><path d="M63.227,59.324c-0.239,0.662-0.333,1.733-0.307,2.992l1.515,0.703L63.227,59.324z"></path><polygon points="66.447,67.19 64.967,64.343 63.404,66.336 "></polygon><polygon points="67.345,58.615 65.026,55.237 63.571,57.33 "></polygon><polygon points="66.431,50.526 61.879,51.685 64.887,54.046 "></polygon><polygon points="66.297,49.825 63.325,47.287 61.707,50.994 "></polygon><path d="M53.842,43.672l-3.172-2.985c0.231,1.468,0.67,2.819,1.258,3.951L53.842,43.672z"></path><path d="M78.15,41.598l-0.606-2.315l-2.535,0.375c0.546,1.238,1.106,2.396,1.396,2.58C76.587,42.303,77.238,42.111,78.15,41.598z"></path><path d="M70.664,40.815l4.155,2.55c-0.917-1.761-1.65-3.214-2.228-4.406L70.664,40.815z"></path><path d="M81.211,39.229l-2.942,0.009l0.516,1.973c0.336-0.217,0.69-0.464,1.067-0.758C80.406,40.02,80.856,39.606,81.211,39.229z"></path><path d="M80.758,36.641c-0.241-0.076-0.491-0.162-0.738-0.262l-1.522,2.146l3.302-0.01c0.246-0.356,0.367-0.643,0.348-0.822  C82.087,37.112,81.698,36.935,80.758,36.641z"></path><path d="M76.964,48.419l-4.967,3.37l2.406,1.135c0.05-0.326,0.131-0.626,0.253-0.892c0.356-0.777,1.092-1.847,1.874-2.98  C76.654,48.872,76.803,48.655,76.964,48.419z"></path><path d="M79.023,44.294c-0.26-0.223-0.51-0.131-1.175,0.274c-0.386,0.235-0.813,0.484-1.271,0.503l-1.612,2.198l3.175-0.664  C78.793,45.529,79.292,44.524,79.023,44.294z"></path><path d="M80.097,33.474l-1.74-3.92l-2.22-1.264l2.591,4.669c0.336,0.069,0.724,0.232,1.141,0.423  C79.95,33.42,80.019,33.441,80.097,33.474z"></path><path d="M77.905,34.215l-1.478,0.71l2.157,0.307l-0.002-0.004C78.297,34.832,78.062,34.502,77.905,34.215z"></path><path d="M88.863,42.289l1.422-2.88l-2.834-0.572c0.331,0.763,0.655,1.566,0.975,2.367C88.571,41.568,88.718,41.934,88.863,42.289z"></path><path d="M53.739,19.271l-0.019-0.003c-0.018-0.003-0.039-0.004-0.061-0.004c-0.068,0-0.148,0.013-0.18,0.044  c-0.035,0.033-0.07,0.144-0.053,0.351c0.017,0.196,0.077,0.453,0.274,0.561c0.159,0.087,0.395,0.076,0.601-0.031  c0.026-0.025,0.063-0.18-0.007-0.393C54.22,19.569,54.035,19.312,53.739,19.271z"></path><path d="M86.592,37.037l0.421-1.621l-1.716-0.21C85.75,35.625,86.179,36.266,86.592,37.037z"></path><path d="M65.997,26.83c0.05,0.131,0.111,0.292,0.166,0.415c0.063-0.179,0.099-0.486,0.116-0.626c0.042-0.346,0.09-0.697,0.31-0.919  l-2.361-3.428l-0.837,1.443C65.1,24.508,65.661,25.942,65.997,26.83z"></path><path d="M64.471,63.822l-1.519-0.705c0.042,0.759,0.119,1.555,0.227,2.351L64.471,63.822z"></path><path d="M62.606,16.676l0.275-0.666c0.424-1.008,0.963-1.287,1.366-1.34l-1.172-1.363l-1.998,3.665  c0.598,0.12,0.981,0.29,1.231,0.406C62.385,17.214,62.49,16.958,62.606,16.676z"></path><path d="M52.772,33.061l3.696-0.038l-1.57-2.396C54.169,31.308,53.432,32.138,52.772,33.061z"></path><path d="M53.737,46.979c0.357,0.289,0.728,0.49,1.107,0.642l-0.647-3.329l-1.912,0.966C52.713,45.948,53.197,46.542,53.737,46.979z"></path><path d="M58.741,47.687c0.213,0,0.407,0.014,0.597,0.032l-0.142-2.742l-3.285,2.903c0.225,0.015,0.452,0.013,0.682-0.016  C57.413,47.756,58.127,47.687,58.741,47.687z"></path><path d="M54.364,28.231l1.016-2.09l-1.132-0.763c-0.015,0.016-0.038,0.025-0.052,0.043c-0.259,0.324-0.333,0.915-0.22,1.757  C54.046,27.706,54.185,28.069,54.364,28.231z"></path><path d="M55.007,25.031l0.909,0.613l2.489-0.424l0.066-0.075c0.007-0.008,0.017-0.012,0.024-0.02l-1.185-0.765  c-0.38,0.466-1.065,0.534-1.643,0.586C55.443,24.966,55.219,24.992,55.007,25.031z"></path><path d="M56.73,19.81c0.13-0.078,0.269-0.161,0.415-0.243c-0.132-0.046-0.291-0.072-0.364-0.046  c-0.189,0.08-0.392,0.075-0.565-0.012c0.028,0.143,0.05,0.289,0.061,0.437c0.004,0.044,0.008,0.083,0.013,0.116  C56.42,19.995,56.591,19.892,56.73,19.81z"></path><path d="M66.878,72.369c0.392-0.038,0.788-0.186,1.169-0.411l-1.026-3.378l-1.99,2.978C65.534,72.149,66.17,72.441,66.878,72.369z"></path><path d="M66.575,67.966l-3.133-0.88c0.296,1.548,0.698,2.948,1.158,3.833L66.575,67.966z"></path><path d="M61.596,49.467l0.892-2.046l-1.696,0.785c0.087,0.064,0.18,0.12,0.257,0.197C61.32,48.677,61.491,49.036,61.596,49.467z"></path><path d="M63.266,56.522l1.279-1.84l-2.954-2.318c0.056,1.105,0.559,2.03,1.056,2.926C62.869,55.695,63.092,56.104,63.266,56.522z"></path><path d="M69.972,69.765c0.243-0.502,0.456-1.066,0.653-1.652h-3.001l1.034,3.405C69.172,71.069,69.631,70.47,69.972,69.765z"></path><path d="M70.006,63.879l1.13,2.598c0.005-0.018,0.011-0.036,0.016-0.054c0.386-1.289,0.766-2.531,1.288-3.546L70.006,63.879z"></path><polygon points="61.207,37.028 57.479,34.085 57.479,39.537 "></polygon><path d="M57.572,27.736c0.475-0.093,0.915-0.14,1.333-0.14c1.996,0,3.491,1.058,5.917,3.106c2.098,1.77,3.354,0.984,4.944-0.015  c0.383-0.24,0.772-0.483,1.176-0.694c0.191-0.099,0.313-0.179,0.39-0.239c-0.352-0.16-1.177-0.327-1.995-0.347  c-1.128-0.028-1.519-1.069-1.805-1.83c-0.073-0.194-0.147-0.391-0.227-0.563c-0.078,0.523-0.258,1.189-0.927,1.39  c-0.692,0.208-1.03-0.339-1.256-0.88c-0.176,0.1-0.39,0.166-0.63,0.191c-0.726,0.075-1.673-0.207-2.155-1.021  c-0.336-0.568-1.148-1.02-1.973-1.102c-0.494-0.05-0.902,0.051-1.096,0.267l-0.206,0.233c-0.506,0.578-1.034,1.154-1.565,1.66  C57.523,27.746,57.547,27.741,57.572,27.736z"></path><polygon points="61.998,33.639 62.123,36.151 65.072,32.772 "></polygon><polygon points="57.862,40.752 59.651,43.757 63.16,42.037 "></polygon><polygon points="63.546,41.397 61.672,37.574 57.993,40.05 "></polygon><polygon points="61.418,36.328 61.289,33.73 58.145,33.73 "></polygon><polygon points="56.766,39.43 56.766,34.233 53.969,37.031 "></polygon><polygon points="62.383,37.407 64.243,41.199 66.676,37.407 "></polygon><polygon points="61.16,33.017 60.108,29.21 57.761,33.017 "></polygon><polygon points="62.581,36.694 66.875,36.694 65.943,32.854 "></polygon><polygon points="58.85,43.803 57.089,40.844 55.124,43.465 "></polygon><path d="M64.897,32.081c-0.248-0.16-0.501-0.34-0.764-0.562c-1.401-1.182-2.403-1.941-3.306-2.381l1.049,3.795L64.897,32.081z"></path><path d="M64.467,17.714l0.421-0.208c0.272-0.131,0.216-0.596,0.193-0.734c-0.098-0.574-0.465-1.024-0.667-1.047  c-0.095-0.021-0.338,0.197-0.549,0.698l-0.272,0.658c-0.381,0.93-0.51,1.243-0.882,1.39c-0.314,0.125-0.583,0.001-0.842-0.118  c-0.237-0.11-0.577-0.266-1.155-0.363c0.1,0.092,0.191,0.21,0.272,0.354C61.439,19.13,62.889,18.497,64.467,17.714z"></path><polygon points="71.786,25.517 74.594,26.706 73.451,23.659 "></polygon><polygon points="78.071,23.606 76.995,20.398 74.332,22.787 "></polygon><path d="M72.324,30.255c-0.042,0.058-0.09,0.112-0.141,0.164l-0.479,2.202l2.695-1.5L72.324,30.255z"></path><path d="M69.362,28.338c0.391,0.01,1.297,0.065,2.039,0.309l-0.499-2.6l-2.713,0.347c0.135,0.254,0.24,0.533,0.343,0.807  C68.82,27.967,68.996,28.329,69.362,28.338z"></path><path d="M62.482,23.414c0.082,0.003,0.162,0.017,0.238,0.036l0.772-1.332l-2.306,0.482L62.482,23.414z"></path><path d="M60.469,24.529c0.966,0.096,2.202,0.634,2.786,1.62c0.22,0.371,0.641,0.47,0.811,0.496c0.221,0.032,0.388,0.003,0.479-0.028  c-0.028-0.041-0.075-0.099-0.154-0.173c-0.421-0.391-0.907-0.789-1.323-1.13c-0.934-0.767-1.297-1.065-1.192-1.446l-1.463-0.932  l-0.727,1.618C59.931,24.518,60.188,24.501,60.469,24.529z"></path><polygon points="73.796,22.314 76.27,20.092 73.281,19.973 "></polygon><polygon points="68.052,21.981 67.472,19.368 64.971,21.391 "></polygon><polygon points="73.127,22.577 72.596,20.18 69.54,22.187 "></polygon><polygon points="68.753,21.852 71.879,19.799 68.157,19.169 "></polygon><polygon points="72.691,29.637 74.858,30.541 74.858,28.057 "></polygon><polygon points="65.782,55.078 68.241,58.66 70.186,55.711 "></polygon><polygon points="67.728,49.418 73.293,47.693 69.68,45.381 "></polygon><polygon points="69.058,63.331 68.108,60.09 65.732,63.331 "></polygon><polygon points="74.139,23.472 75.359,26.727 77.916,24.301 "></polygon><polygon points="64.94,41.43 69.465,40.626 67.345,37.684 "></polygon><polygon points="65.255,42.097 69.252,44.302 69.665,41.314 "></polygon><polygon points="68.807,59.096 70.872,59.721 70.54,56.468 "></polygon><polygon points="66.309,54.434 70.502,55.035 70.878,52.412 "></polygon><polygon points="68.774,59.83 69.622,62.722 70.772,60.436 "></polygon><polygon points="68.072,50.056 71.157,51.403 73.237,48.455 "></polygon><polygon points="74.858,31.682 71.986,33.28 71.989,33.283 74.858,34.563 "></polygon><polygon points="68.913,64.042 65.601,64.017 67.162,67.02 "></polygon><polygon points="68.865,45.43 63.924,46.862 66.932,49.429 "></polygon><path d="M67.52,32.804c-0.276,0.029-0.563,0.024-0.861-0.019l0.868,3.577l2.947-2.851L67.52,32.804z"></path><polygon points="63.702,42.565 60.222,44.27 62.951,46.112 "></polygon><polygon points="68.61,44.762 64.45,42.467 63.662,46.196 "></polygon><polygon points="70.246,16.114 72.615,18.865 73.225,15.797 "></polygon><polygon points="70.395,51.848 67.235,50.469 65.723,53.914 "></polygon><polygon points="71.906,19.081 69.58,16.424 68.283,18.468 "></polygon><path d="M50,5C25.187,5,5,25.187,5,50c0,24.813,20.187,45,45,45c24.813,0,45-20.187,45-45C95,25.187,74.813,5,50,5z M50,93.477  C26.026,93.477,6.522,73.973,6.522,50C6.522,26.026,26.026,6.522,50,6.522c18.162,0,33.75,11.198,40.244,27.05  c0.123,0.297,0.237,0.587,0.344,0.872c1.859,4.834,2.888,10.076,2.888,15.556C93.477,73.973,73.973,93.477,50,93.477z"></path><path d="M91.832,44.549c-0.19,0.704-0.492,1.307-0.981,1.531c-0.255,0.115-0.766,0.227-1.363-0.33  c-0.599-0.555-1.17-1.939-2.054-4.15c-0.925-2.317-2.078-5.201-3.094-5.802c-0.98-0.578-1.612-0.659-2.343-0.752  c-0.686-0.087-1.464-0.186-2.573-0.694c-0.081-0.038-0.156-0.071-0.226-0.101c0.086,0.12,0.173,0.242,0.251,0.352l0.172,0.239  c0.296,0.414,0.86,0.59,1.456,0.777c0.888,0.278,1.994,0.624,2.133,1.96c0.185,1.747-3.184,4.085-3.568,4.346  c-0.988,0.669-2.769,1.721-3.71,1.269c0.055,0.105,0.111,0.211,0.167,0.318l0.067,0.127c0.154,0.296,0.27,0.356,0.312,0.367  c0.163,0.049,0.524-0.174,0.814-0.352c0.612-0.373,1.539-0.934,2.425-0.174c1.224,1.049-0.491,3.539-2.309,6.176  c-0.753,1.093-1.466,2.127-1.783,2.818c-0.369,0.808-0.202,2.349-0.041,3.84c0.25,2.297,0.508,4.673-0.994,5.586  c-1.187,0.723-1.812,2.809-2.416,4.826c-0.36,1.205-0.732,2.449-1.241,3.501c-0.883,1.825-2.398,3.051-3.954,3.202  c-0.106,0.01-0.213,0.016-0.318,0.016c-1.019,0-1.937-0.483-2.612-1.383c-1.811-2.416-2.897-10.945-1.709-13.422  c0.415-0.865,0.031-1.64-0.63-2.833c-0.661-1.193-1.41-2.545-1.151-4.365c0.169-1.186,0.081-1.935-0.27-2.289  c-0.508-0.514-1.79-0.466-3.557-0.232c-1.284,0.17-2.558-0.214-3.668-1.113c-1.97-1.592-3.314-4.658-3.598-8.2  c-0.305-3.808,2.499-7.945,5.169-10.204c-0.127,0.001-0.303-0.018-0.45-0.062c-0.692-0.209-1.118-0.89-1.271-2.025  c-0.154-1.158-0.008-1.997,0.445-2.565c0.58-0.726,1.484-0.807,2.211-0.873c0.542-0.049,0.9-0.093,0.941-0.256  c0.115-0.458-0.134-0.919-0.353-1.324c-0.204-0.378-0.396-0.768-0.268-1.161c-0.048-0.015-0.096-0.011-0.144-0.035  c-0.239-0.124-0.364-0.338-0.438-0.565c-0.098,0.258-0.271,0.468-0.515,0.595c-0.267,0.14-0.559,0.21-0.844,0.21  c-0.271,0-0.536-0.063-0.766-0.19c-0.478-0.263-0.77-0.764-0.823-1.409c-0.055-0.669,0.189-1.04,0.403-1.233  c0.434-0.39,1.014-0.319,1.131-0.3c0.436,0.063,0.781,0.289,1.03,0.579c-0.221-0.791-0.414-1.781,0.531-2.383  c0.22-0.141,0.47-0.162,0.691-0.055c0.449,0.219,0.505,0.805,0.576,1.546c0.015,0.154,0.035,0.373,0.061,0.544  c0.605-0.037,1.287,0.281,1.515,0.75c0.019,0.038,0.022,0.084,0.036,0.126c0.083-0.108,0.165-0.216,0.243-0.32  c0.405-0.542,0.768-1.026,1.2-1.194c-0.865-0.315-1.411-1.085-1.382-2.03c0.052-1.69,1.942-3.591,5.967-3.771  c1.694-0.075,3.051-0.027,4.145,0.083C62.915,9.348,56.635,7.804,50,7.804c-5.991,0-11.689,1.263-16.855,3.523  c0.72,0.06,1.648,0.423,2.79,0.874c0.399,0.158,0.816,0.323,1.24,0.48c0.729,0.27,1.571,0.671,1.61,1.382  c0.042,0.766-0.834,1.206-1.682,1.633l-0.327,0.166c-0.311,0.162-0.996,0.505-1.9,0.648c0.187,0.14,0.375,0.304,0.564,0.497  l0.216,0.219c0.979,0.986,2.196,2.213,1.959,3.756c-0.2,1.297-1.406,2.509-3.687,3.705c-5.695,2.987-8.689,7.392-8.723,8.079  c0,0.208,0.026,0.557,0.054,0.968c0.168,2.379,0.175,3.535-0.484,3.855c-0.058,0.029-0.143,0.05-0.238,0.061  c0.023,0.006,0.039,0.009,0.063,0.016c0.317,0.049,1.486,0.274,1.888,0.968c0.033,0.057,0.034,0.123,0.056,0.183l0.012,0.005  c1.143-0.246,2.382,0.015,2.88,0.626c0.264,0.325,0.31,0.723,0.126,1.093c-0.292,0.584-1.127,0.871-1.911,0.871  c-0.185,0-0.367-0.016-0.538-0.048c-0.65-0.121-1.072-0.48-1.186-0.963c-0.011,0.004-0.018,0.013-0.03,0.017  c-0.085,0.029-0.167,0.044-0.252,0.044c-0.316,0-0.659-0.199-1.259-0.546c-0.316-0.183-0.723-0.418-1.256-0.705  c-0.884-0.476-1.541-0.888-1.3-1.483c0.099-0.243,0.299-0.669,2.225-0.201c-0.067-0.039-0.133-0.074-0.203-0.138  c-0.381-0.346-0.563-0.869-0.74-1.375c-0.207-0.59-0.401-1.149-0.847-1.339c-0.456-0.195-1.212-0.055-2.246,0.415  c-2.041,0.928-2.64,2.678-2.816,3.64c-0.163,0.894-0.05,1.548,0.063,1.821c0.286-0.179,0.642-0.494,0.988-0.802  c0.89-0.789,1.898-1.684,2.657-0.926c0.533,0.533,0.265,1.373,0.03,2.115c-0.075,0.234-0.191,0.6-0.209,0.794  c1.623,0.403,1.76,3.009,1.806,3.877c0.013,0.239,0.086,0.267,0.126,0.282c0.52,0.202,2.217-0.576,3.376-1.735  c0.452-0.451,1.198-0.565,2.223-0.334c2.665,0.598,7.396,3.715,8.114,5.721c0.554,1.549,1.848,2.283,3.099,2.992  c1.438,0.815,2.925,1.658,2.92,3.675c-0.01,4.252-1.009,7.613-3.052,10.279c-0.502,0.654-0.92,1.664-1.361,2.733  c-0.775,1.876-1.652,4.002-3.329,4.841c-1.888,0.943-1.402,4.516-1.055,5.814c0.076,0.283,0.244,0.674,0.422,1.088  c0.466,1.082,0.905,2.103,0.44,2.727c-0.136,0.182-0.391,0.383-0.856,0.383c-0.066,0-0.137-0.004-0.212-0.013  c-1.359-0.161-4.631-1.765-5.67-13.187c-0.653-7.181-0.961-7.345-1.784-7.784c-0.384-0.204-0.91-0.485-1.566-1.183  c-1.854-1.97-3.3-5.424-2.508-7.797c0.102-0.307,0.225-0.652,0.357-1.02c0.545-1.525,1.456-4.079,0.992-4.892  c-0.045-0.078-0.115-0.163-0.298-0.198c-1.206-0.23-2.019-1.205-2.805-2.149c-0.633-0.76-1.231-1.478-1.96-1.733  c-0.349-0.122-0.74-0.237-1.145-0.357c-1.779-0.526-3.992-1.181-4.436-2.959c-0.479-1.917-1.338-4.772-1.886-6.091  C8.832,39.454,7.804,44.608,7.804,50c0,23.267,18.929,42.196,42.196,42.196S92.196,73.267,92.196,50  C92.196,48.152,92.063,46.335,91.832,44.549z M75,63.312c1.15-3.717,2.337-4.614,3.448-5.03c0.322-0.124,0.659-0.031,0.876,0.234  c0.773,0.945-0.046,5.283-0.879,6.616c-0.527,0.844-1.544,1.564-2.418,1.564c-0.197,0-0.388-0.038-0.563-0.118  C74.873,66.309,74.315,65.523,75,63.312z M52.95,14.694c-0.247,0.914-1.337,1.574-2.204,1.662c-0.066,0.007-0.13,0.01-0.192,0.01  c-0.481,0-0.852-0.196-1.031-0.552c-0.302-0.601-0.322-1.233-0.054-1.69c0.185-0.316,0.59-0.699,1.471-0.739h-0.001  c0.245-0.011,0.461-0.034,0.646-0.054c0.518-0.055,0.964-0.102,1.261,0.247C53.118,13.895,53.051,14.32,52.95,14.694z   M42.355,18.397c-0.105,0-0.209-0.011-0.314-0.037c-0.527-0.124-0.938-0.561-1.258-1.336c-0.298-0.723-0.623-1.409-0.922-2.038  c-0.814-1.712-1.401-2.95-0.926-3.783c0.222-0.389,0.634-0.613,1.223-0.667c1.348-0.123,2.084-0.358,2.733-0.566  c0.303-0.097,0.581-0.185,0.877-0.251c2.111-0.471,7.942-0.936,8.577,0.803c0.375,1.028-1.018,1.893-2.099,2.454  c-2.103,1.092-3.671,2.464-4.932,3.567C44.067,17.635,43.196,18.397,42.355,18.397z"></path><path d="M74.018,15.461l-0.754,3.799l3.451,0.137l-0.516-2.338c-0.871-0.702-1.643-1.27-2.285-1.711L74.018,15.461z"></path><polygon points="81.369,22.778 77.811,20.589 78.833,23.636 "></polygon><polygon points="86.302,31.439 87.398,34.044 87.861,32.435 "></polygon><path d="M67.221,13.295l-1.227,2.793c0.041,0.112,0.074,0.224,0.101,0.336l1.551,1.719l1.458-2.297L67.221,13.295z"></path><path d="M77.091,17.799l0.385,1.747l3.857,2.373C79.824,20.262,78.38,18.897,77.091,17.799z"></path><path d="M85.868,30.316l2.14,1.367c-0.723-1.494-1.54-2.933-2.428-4.323L85.868,30.316z"></path><path d="M88.505,32.775l-0.65,2.255l2.66,3.208C89.969,36.36,89.296,34.536,88.505,32.775z"></path><path d="M82.334,23.054l-0.018,0.156l-2.891,0.978l2.9,1.855l2.61,0.321c-0.04-0.059-0.083-0.115-0.123-0.173  c-0.261-0.359-0.521-0.718-0.804-1.086C83.448,24.376,82.89,23.702,82.334,23.054z"></path><path d="M91.063,41.335c-0.016-0.406-0.058-0.941-0.151-1.587l-1.684,3.411c0.373,0.864,0.72,1.562,0.986,1.809  c0.138,0.128,0.208,0.139,0.209,0.139C90.673,44.993,91.148,43.555,91.063,41.335z"></path><path d="M69.7,15.455l3.782-0.402c-0.941-0.625-1.509-0.926-1.527-0.935l-0.091-0.059c-0.048-0.035-1.014-0.714-3.891-0.944  L69.7,15.455z"></path><path d="M13.761,32.089l-0.614-2.607c-0.558,0.998-1.073,2.023-1.551,3.069L13.761,32.089z"></path><path d="M13.474,32.879l-2.243,0.479c-0.017,0.039-0.036,0.078-0.053,0.117c0.284,0.388,0.582,1.022,0.879,1.817L13.474,32.879z"></path><path d="M32.768,12.406c0.001,0.001-0.019,0.035-0.025,0.131c-0.017,0.252,0.353,0.392,1.088,0.576  c0.57,0.143,1.108,0.278,1.279,0.756c0.067,0.187,0.092,0.485-0.173,0.842c-0.279,0.377-0.722,0.615-1.17,0.786  c1.039,0.1,1.911-0.268,2.516-0.583l0.34-0.173c0.314-0.158,0.867-0.436,1.053-0.621c-0.091-0.079-0.321-0.234-0.873-0.438  c-0.432-0.16-0.856-0.328-1.262-0.488C34.611,12.827,33.052,12.212,32.768,12.406z"></path><path d="M25.269,16.057l3.038-0.312c0.455-0.258,0.944-0.546,1.225-0.765C28.455,14.764,26.53,15.448,25.269,16.057z"></path><path d="M17.618,23.127l2.373-0.935l-0.015-1.518C19.156,21.473,18.341,22.309,17.618,23.127z"></path><path d="M16.351,26.553l0.524-2.546c-1.095,1.353-2.236,3.038-3.215,4.622L16.351,26.553z"></path><polygon points="17.11,26.398 21.159,26.398 20.119,22.907 17.626,23.889 "></polygon><path d="M20.945,19.748l1.484,0.005l1.771-2.906C23.443,17.49,22.238,18.537,20.945,19.748z"></path><path d="M26.773,16.619l-1.705,0.175l-1.746,2.865l2.111-0.292c-0.131-0.179-0.246-0.359-0.328-0.536  C24.733,18.025,25.568,17.339,26.773,16.619z"></path><polygon points="17.692,29.516 16.552,27.297 14.334,29.009 "></polygon><path d="M28.067,13.966c0.788-0.143,1.561-0.156,2.153,0.108c0.487,0.217,0.574,0.562,0.583,0.748  c0.032,0.704-0.813,1.209-2.434,2.114c-0.727,0.405-2.054,1.146-2.261,1.513c0.276,0.531,1.03,1.296,1.892,1.378  c0.667,0.063,1.28-0.298,1.836-1.071c0.966-1.346,1.74-2.135,2.479-2.515c-0.328-0.128-0.664-0.329-0.657-0.727  c0.009-0.5,0.485-0.635,1.035-0.792c0.375-0.107,0.907-0.259,1.215-0.481c-0.112-0.032-0.237-0.064-0.337-0.089  c-0.737-0.185-1.971-0.494-1.893-1.682c0.015-0.227,0.074-0.399,0.149-0.543C30.535,12.543,29.281,13.225,28.067,13.966z"></path><path d="M89.895,38.603l-2.261-2.743l-0.558,2.144c0.006,0.012,0.011,0.023,0.017,0.034L89.895,38.603z"></path></svg>