<svg height='100px' width='100px'  fill="#000000" xmlns="http://www.w3.org/2000/svg" data-name="Layer 1" viewBox="0 0 100 100" x="0px" y="0px"><title>Elephant</title><ellipse cx="15.48" cy="31.48" rx="1.09" ry="2.05"></ellipse><ellipse cx="29.5" cy="31.48" rx="1.09" ry="2.05"></ellipse><path d="M95.38,54.42c-.05-1.28,0-2.76,0-4.34.08-5.3.18-11.89-2.4-17.54C89.72,25.4,80.45,21.6,68.78,22.61c-9.42.82-14.1-3.53-14.65-4.07a34.41,34.41,0,0,0-3.64-5.21,2.48,2.48,0,0,0-1.67-.48c-3.25,0-11.36,3.17-13.17,3.89a28.51,28.51,0,0,0-8.28-1.27,19.87,19.87,0,0,0-7.07,1.23c-1.67-1.16-5.54-3.58-7.56-2.56-1.26.63-4,4.55-5.66,10A30.35,30.35,0,0,0,9.59,48.2a80,80,0,0,1-.51,10.62c-.34,3.31-.58,5.7.25,7.83,1.72,4.4,5.91,16,6.12,17.62.16,1.25.35,2.81,2.5,2.81A11,11,0,0,0,19.1,87a2.79,2.79,0,0,0,2.09-1.32c1.08-1.68.75-4.42.14-6.25l-.18-.53C20,75.63,17,67,20.89,54.19l.5-1.71a23.22,23.22,0,0,0,6-2.12l2.71-1.62a7.8,7.8,0,0,0,2.55,3.46V87H44.35V64.15a16.5,16.5,0,0,0,1.71.44V87H59.43V65.43h3.63V87H74.74V65.43h2.41V87H89.81V72.76a3.82,3.82,0,0,0,.16.69c.81,2.39,3.76,3.42,4.09,3.53l1.29.42,0-1.36C95.38,75.89,95.61,59.95,95.38,54.42ZM13.64,15.92c.56-.28,2.54.53,4.56,1.79-6,3.7-9.4,13.2-8.87,25.11C4.4,29,12,16.89,13.64,15.92Zm17.9,31-.39-1.18-4.82,2.88a24.35,24.35,0,0,1-5.93,2l-.59.12L19,53.62c-4,13.38-.89,22.5.29,25.93l.17.51c.59,1.78.62,3.68.07,4.54a.81.81,0,0,1-.63.41,9.67,9.67,0,0,1-1.22.06h0a4.19,4.19,0,0,1-.21-1c-.27-2.15-5-15-6.24-18.1-.66-1.68-.45-3.76-.12-6.9a77.34,77.34,0,0,0,.34-14.67c-.93-12.65,2.74-22.95,9.13-25.63a17.62,17.62,0,0,1,6.84-1.26,26.45,26.45,0,0,1,8,1.28l.36.13.35-.14c2.65-1.08,10.1-3.88,12.76-3.88.27,0,.39,0,.38,0,1.13,1,6.56,10.16,9.79,15.8a4.07,4.07,0,0,1,.47,3c-.4,1.91-2.06,3.83-4.82,5.57-3.35,2.1-6.54,3.92-9.11,5.38C41,47.19,39,48.38,38.32,49.42a4.19,4.19,0,0,1-3,1.62C33.32,51,32.16,48.82,31.54,47ZM42.35,83.53a2.42,2.42,0,0,0-1.09-.27A2.44,2.44,0,0,0,38.93,85h0a2.43,2.43,0,0,0-4.27-.77V56.5a16.88,16.88,0,0,0,7.72,6.9ZM72.74,84a2.43,2.43,0,0,0-4.12,1h0a2.42,2.42,0,0,0-3.53-1.41V65.43h7.68ZM91.29,68.37l-.56,1.12a5.29,5.29,0,0,0-.92,2.24V64.6c.2-.22.38-.45.56-.68a13.19,13.19,0,0,0,.92-1.45Zm2.11,6.09a3.46,3.46,0,0,1-1.53-1.65,2.51,2.51,0,0,1,.55-2.24l.87-1.73V49.15l-2,7.85a19.19,19.19,0,0,1-2.56,5.73,6.79,6.79,0,0,1-.66.77l-.29.29V84.33a2.44,2.44,0,0,0-4.35.68h0a2.43,2.43,0,0,0-4.29-.75V63.43H57.43V84.75a2.44,2.44,0,0,0-4.58.26h0a2.43,2.43,0,0,0-4.67,0h-.09V62.81l-.92-.08a14.85,14.85,0,0,1-12-9.7h.11A6.1,6.1,0,0,0,40,50.48c.41-.66,3.51-2.42,6.5-4.13,2.58-1.47,5.8-3.3,9.19-5.43s5.23-4.4,5.73-6.92a6.13,6.13,0,0,0-.77-4.43c-.62-1.08-2.26-3.94-4.07-7A23.18,23.18,0,0,0,69,24.6c10.8-.94,19.31,2.42,22.2,8.76,2.39,5.25,2.3,11.59,2.22,16.68,0,1.6,0,3.11,0,4.45C93.57,59,93.45,70.3,93.4,74.46Z"></path></svg>