<svg width="375" height="812" viewBox="0 0 375 812" fill="none" xmlns="http://www.w3.org/2000/svg">
<rect width="375" height="812" fill="white"/>
<circle cx="187" cy="367" r="95" fill="white" stroke="black" stroke-width="10"/>
<path d="M125 348H135.622V362.36L146.761 348H160.877L148.355 362.334L161.44 386H148.355L141.11 370.37L135.622 376.72V386H125V348Z" fill="black"/>
<path d="M172.137 348H200.605V356.113H182.783V362.153H199.315V369.903H182.783V377.394H201.121V386H172.137V348Z" fill="black"/>
<path d="M210.599 348H222.394L229.334 360.831L236.275 348H248L234.634 370.085V386H223.988V370.085L210.599 348Z" fill="black"/>
<line x1="177" y1="380" x2="177" y2="458" stroke="black" stroke-width="10"/>
<path d="M114.88 511.152C114.88 512.664 115.432 513.888 116.536 514.848C117.64 515.784 119.08 516.264 120.88 516.264C122.92 516.264 124.744 515.64 125.92 514.128C126.52 513.36 126.808 512.448 126.832 511.416C126.904 508.992 125.392 507.312 122.296 506.424L120.328 505.8C119.152 505.464 118.552 504.912 118.552 504.12C118.552 503.16 119.44 502.464 120.688 502.464C122.056 502.464 122.824 503.208 122.824 504.336H126.328C126.328 502.776 125.8 501.552 124.744 500.64C123.712 499.728 122.368 499.272 120.736 499.272C119.128 499.272 117.76 499.728 116.68 500.664C115.6 501.576 115.048 502.752 115.048 504.216C115.048 506.496 116.464 508.08 119.32 508.968L121.312 509.52C122.872 509.976 123.328 510.552 123.304 511.392C123.28 512.448 122.32 513.144 120.88 513.144C119.368 513.144 118.48 512.28 118.408 511.152H114.88ZM136.436 510.72C136.436 512.28 135.572 513 134.42 513C133.436 513 132.428 512.376 132.428 510.768V504.792H129.092V511.488C129.092 514.56 130.916 516.24 133.532 516.24C134.66 516.24 135.86 515.544 136.436 514.464V516H139.772V504.792H136.436V510.72ZM146.236 510.432C146.236 508.872 147.388 507.72 148.828 507.72C150.268 507.72 151.42 508.824 151.42 510.432C151.42 511.992 150.268 513.096 148.828 513.096C147.388 513.096 146.236 512.064 146.236 510.432ZM142.852 521.496H146.164V514.632C146.716 515.616 148.012 516.24 149.452 516.24C150.94 516.24 152.212 515.688 153.268 514.608C154.348 513.528 154.876 512.112 154.876 510.36C154.876 508.656 154.348 507.264 153.268 506.184C152.212 505.104 150.94 504.552 149.452 504.552C148.012 504.552 146.716 505.152 146.164 506.184V504.792H142.852V521.496ZM160.674 510.432C160.674 508.872 161.826 507.72 163.266 507.72C164.706 507.72 165.858 508.824 165.858 510.432C165.858 511.992 164.706 513.096 163.266 513.096C161.826 513.096 160.674 512.064 160.674 510.432ZM157.29 521.496H160.602V514.632C161.154 515.616 162.45 516.24 163.89 516.24C165.378 516.24 166.65 515.688 167.706 514.608C168.786 513.528 169.314 512.112 169.314 510.36C169.314 508.656 168.786 507.264 167.706 506.184C166.65 505.104 165.378 504.552 163.89 504.552C162.45 504.552 161.154 505.152 160.602 506.184V504.792H157.29V521.496ZM176.863 512.928C175.447 512.928 174.343 511.896 174.343 510.36C174.343 508.896 175.447 507.816 176.863 507.816C178.279 507.816 179.407 508.896 179.407 510.36C179.407 511.896 178.303 512.928 176.863 512.928ZM180.991 514.584C182.119 513.504 182.695 512.088 182.695 510.36C182.695 508.632 182.119 507.24 180.991 506.16C179.863 505.08 178.495 504.552 176.863 504.552C175.231 504.552 173.863 505.08 172.735 506.16C171.607 507.24 171.055 508.632 171.055 510.36C171.055 512.088 171.607 513.504 172.735 514.584C173.863 515.664 175.231 516.192 176.863 516.192C178.495 516.192 179.863 515.664 180.991 514.584ZM188.423 512.088C188.423 509.112 189.359 507.624 191.207 507.624C191.879 507.624 192.455 507.744 192.911 507.96L193.511 504.96C192.959 504.696 192.335 504.552 191.591 504.552C190.319 504.552 188.975 505.56 188.423 507.504V504.792H185.087V516H188.423V512.088ZM199.603 500.496H196.291V504.792H194.251V507.432H196.291V516H199.603V507.432H201.955V504.792H199.603V500.496ZM209.391 516H212.727V498.696H209.391V516ZM220.926 512.928C219.51 512.928 218.406 511.896 218.406 510.36C218.406 508.896 219.51 507.816 220.926 507.816C222.342 507.816 223.47 508.896 223.47 510.36C223.47 511.896 222.366 512.928 220.926 512.928ZM225.054 514.584C226.182 513.504 226.758 512.088 226.758 510.36C226.758 508.632 226.182 507.24 225.054 506.16C223.926 505.08 222.558 504.552 220.926 504.552C219.294 504.552 217.926 505.08 216.798 506.16C215.67 507.24 215.118 508.632 215.118 510.36C215.118 512.088 215.67 513.504 216.798 514.584C217.926 515.664 219.294 516.192 220.926 516.192C222.558 516.192 223.926 515.664 225.054 514.584ZM234.573 504.552C232.917 504.552 231.477 505.104 230.277 506.184C229.077 507.264 228.477 508.656 228.477 510.36C228.477 512.064 229.077 513.48 230.277 514.584C231.477 515.688 232.917 516.24 234.573 516.24C236.589 516.24 238.389 515.352 239.445 513.84L236.733 511.92C236.253 512.664 235.533 513.048 234.573 513.048C233.829 513.048 233.181 512.808 232.629 512.304C232.077 511.8 231.789 511.152 231.789 510.36C231.789 509.592 232.077 508.968 232.629 508.488C233.181 507.984 233.829 507.744 234.573 507.744C235.533 507.744 236.253 508.128 236.733 508.872L239.445 506.928C238.365 505.416 236.565 504.552 234.573 504.552ZM253.234 516V504.792H249.922V506.04C249.154 504.96 247.714 504.552 246.658 504.552C245.146 504.552 243.826 505.104 242.674 506.184C241.522 507.264 240.946 508.656 240.946 510.384C240.946 512.112 241.522 513.528 242.674 514.608C243.826 515.688 245.146 516.216 246.658 516.216C247.186 516.216 247.786 516.096 248.434 515.832C249.106 515.568 249.61 515.208 249.922 514.728V516H253.234ZM247.21 513.048C246.466 513.048 245.818 512.808 245.242 512.304C244.69 511.8 244.402 511.152 244.402 510.384C244.402 509.616 244.69 508.992 245.242 508.488C245.818 507.984 246.466 507.72 247.21 507.72C248.65 507.72 249.922 508.776 249.922 510.384C249.922 511.992 248.65 513.048 247.21 513.048ZM256.313 516H259.649V498.696H256.313V516ZM75.0108 538.552C73.3548 538.552 71.9148 539.104 70.7148 540.184C69.5148 541.264 68.9148 542.656 68.9148 544.36C68.9148 546.064 69.5148 547.48 70.7148 548.584C71.9148 549.688 73.3548 550.24 75.0108 550.24C77.0268 550.24 78.8268 549.352 79.8828 547.84L77.1708 545.92C76.6908 546.664 75.9708 547.048 75.0108 547.048C74.2668 547.048 73.6188 546.808 73.0668 546.304C72.5148 545.8 72.2268 545.152 72.2268 544.36C72.2268 543.592 72.5148 542.968 73.0668 542.488C73.6188 541.984 74.2668 541.744 75.0108 541.744C75.9708 541.744 76.6908 542.128 77.1708 542.872L79.8828 540.928C78.8028 539.416 77.0028 538.552 75.0108 538.552ZM87.1915 546.928C85.7755 546.928 84.6715 545.896 84.6715 544.36C84.6715 542.896 85.7755 541.816 87.1915 541.816C88.6075 541.816 89.7355 542.896 89.7355 544.36C89.7355 545.896 88.6315 546.928 87.1915 546.928ZM91.3195 548.584C92.4475 547.504 93.0235 546.088 93.0235 544.36C93.0235 542.632 92.4475 541.24 91.3195 540.16C90.1915 539.08 88.8235 538.552 87.1915 538.552C85.5595 538.552 84.1915 539.08 83.0635 540.16C81.9355 541.24 81.3835 542.632 81.3835 544.36C81.3835 546.088 81.9355 547.504 83.0635 548.584C84.1915 549.664 85.5595 550.192 87.1915 550.192C88.8235 550.192 90.1915 549.664 91.3195 548.584ZM98.7509 544.072C98.7509 542.56 99.4469 541.792 100.815 541.792C101.991 541.792 102.759 542.584 102.759 544.024V550H106.095V543.304C106.095 540.16 104.583 538.552 101.991 538.552C100.671 538.552 99.3509 539.296 98.7509 540.424V538.792H95.4149V550H98.7509V544.072ZM113.424 545.776C114.216 545.992 114.528 546.256 114.528 546.736C114.528 547.288 113.928 547.648 113.16 547.672C112.272 547.672 111.528 547.048 111.504 546.376H108.384C108.408 547.552 108.864 548.512 109.8 549.208C110.736 549.904 111.84 550.24 113.064 550.24C114.36 550.24 115.488 549.928 116.448 549.328C117.432 548.728 117.912 547.864 117.912 546.736C117.912 546.064 117.816 545.44 116.832 544.504C116.352 544.048 115.704 543.688 114.864 543.472L112.968 542.968C112.344 542.8 112.008 542.536 111.984 542.128C111.96 541.624 112.416 541.288 113.16 541.288C114 541.288 114.408 541.624 114.432 542.272H117.576C117.552 541 117.096 540.064 116.208 539.464C115.32 538.864 114.24 538.552 112.968 538.552C111.792 538.552 110.784 538.888 109.92 539.536C109.056 540.184 108.624 540.904 108.6 541.744C108.576 542.44 108.624 542.824 108.984 543.592C109.368 544.336 110.4 544.984 111.96 545.392L113.424 545.776ZM128.131 546.304C127.579 547 126.763 547.36 125.683 547.36C124.363 547.36 123.091 546.712 122.923 545.488H131.131C131.155 545.104 131.179 544.768 131.179 544.456C131.179 542.704 130.627 541.288 129.523 540.208C128.443 539.104 127.075 538.552 125.443 538.552C123.787 538.552 122.395 539.08 121.267 540.16C120.139 541.24 119.587 542.632 119.587 544.36C119.587 546.088 120.139 547.504 121.267 548.608C122.395 549.688 123.787 550.24 125.443 550.24C127.819 550.24 129.523 549.472 130.555 547.96L128.131 546.304ZM122.971 543.4C123.499 540.832 127.483 540.856 127.819 543.4H122.971ZM136.79 546.088C136.79 543.112 137.726 541.624 139.574 541.624C140.246 541.624 140.822 541.744 141.278 541.96L141.878 538.96C141.326 538.696 140.702 538.552 139.958 538.552C138.686 538.552 137.342 539.56 136.79 541.504V538.792H133.454V550H136.79V546.088ZM149.722 550L154.474 538.792H150.898L148.306 545.752L145.69 538.792H142.138L146.866 550H149.722ZM167.453 550V538.792H164.141V540.04C163.373 538.96 161.933 538.552 160.877 538.552C159.365 538.552 158.045 539.104 156.893 540.184C155.741 541.264 155.165 542.656 155.165 544.384C155.165 546.112 155.741 547.528 156.893 548.608C158.045 549.688 159.365 550.216 160.877 550.216C161.405 550.216 162.005 550.096 162.653 549.832C163.325 549.568 163.829 549.208 164.141 548.728V550H167.453ZM161.429 547.048C160.685 547.048 160.037 546.808 159.461 546.304C158.909 545.8 158.621 545.152 158.621 544.384C158.621 543.616 158.909 542.992 159.461 542.488C160.037 541.984 160.685 541.72 161.429 541.72C162.869 541.72 164.141 542.776 164.141 544.384C164.141 545.992 162.869 547.048 161.429 547.048ZM174.9 534.496H171.588V538.792H169.548V541.432H171.588V550H174.9V541.432H177.252V538.792H174.9V534.496ZM179.298 538.792V550H182.61V538.792H179.298ZM180.954 532.696C179.802 532.696 178.866 533.56 178.866 534.64C178.866 535.72 179.802 536.608 180.954 536.608C182.082 536.608 182.994 535.72 182.994 534.64C182.994 533.56 182.082 532.696 180.954 532.696ZM190.809 546.928C189.393 546.928 188.289 545.896 188.289 544.36C188.289 542.896 189.393 541.816 190.809 541.816C192.225 541.816 193.353 542.896 193.353 544.36C193.353 545.896 192.249 546.928 190.809 546.928ZM194.937 548.584C196.065 547.504 196.641 546.088 196.641 544.36C196.641 542.632 196.065 541.24 194.937 540.16C193.809 539.08 192.441 538.552 190.809 538.552C189.177 538.552 187.809 539.08 186.681 540.16C185.553 541.24 185.001 542.632 185.001 544.36C185.001 546.088 185.553 547.504 186.681 548.584C187.809 549.664 189.177 550.192 190.809 550.192C192.441 550.192 193.809 549.664 194.937 548.584ZM202.368 544.072C202.368 542.56 203.064 541.792 204.432 541.792C205.608 541.792 206.376 542.584 206.376 544.024V550H209.712V543.304C209.712 540.16 208.2 538.552 205.608 538.552C204.288 538.552 202.968 539.296 202.368 540.424V538.792H199.032V550H202.368V544.072ZM221.916 544.432C221.916 542.872 223.068 541.72 224.508 541.72C225.948 541.72 227.1 542.824 227.1 544.432C227.1 545.992 225.948 547.096 224.508 547.096C223.068 547.096 221.916 546.064 221.916 544.432ZM218.532 555.496H221.844V548.632C222.396 549.616 223.692 550.24 225.132 550.24C226.62 550.24 227.892 549.688 228.948 548.608C230.028 547.528 230.556 546.112 230.556 544.36C230.556 542.656 230.028 541.264 228.948 540.184C227.892 539.104 226.62 538.552 225.132 538.552C223.692 538.552 222.396 539.152 221.844 540.184V538.792H218.532V555.496ZM236.306 546.088C236.306 543.112 237.242 541.624 239.09 541.624C239.762 541.624 240.338 541.744 240.794 541.96L241.394 538.96C240.842 538.696 240.218 538.552 239.474 538.552C238.202 538.552 236.858 539.56 236.306 541.504V538.792H232.97V550H236.306V546.088ZM248.067 546.928C246.651 546.928 245.547 545.896 245.547 544.36C245.547 542.896 246.651 541.816 248.067 541.816C249.483 541.816 250.611 542.896 250.611 544.36C250.611 545.896 249.507 546.928 248.067 546.928ZM252.195 548.584C253.323 547.504 253.899 546.088 253.899 544.36C253.899 542.632 253.323 541.24 252.195 540.16C251.067 539.08 249.699 538.552 248.067 538.552C246.435 538.552 245.067 539.08 243.939 540.16C242.811 541.24 242.259 542.632 242.259 544.36C242.259 546.088 242.811 547.504 243.939 548.584C245.067 549.664 246.435 550.192 248.067 550.192C249.699 550.192 251.067 549.664 252.195 548.584ZM255.402 555.64C258.45 555.64 259.65 553.912 259.65 550.768V538.792H256.29V550.84C256.314 552.016 255.834 552.616 254.826 552.616H253.362V555.64H255.402ZM256.482 536.032C257.322 536.8 258.642 536.8 259.434 536.032C260.226 535.264 260.226 534.016 259.434 533.272C258.642 532.504 257.322 532.504 256.482 533.272C255.69 534.016 255.69 535.264 256.482 536.032ZM270.584 546.304C270.032 547 269.216 547.36 268.136 547.36C266.816 547.36 265.544 546.712 265.376 545.488H273.584C273.608 545.104 273.632 544.768 273.632 544.456C273.632 542.704 273.08 541.288 271.976 540.208C270.896 539.104 269.528 538.552 267.896 538.552C266.24 538.552 264.848 539.08 263.72 540.16C262.592 541.24 262.04 542.632 262.04 544.36C262.04 546.088 262.592 547.504 263.72 548.608C264.848 549.688 266.24 550.24 267.896 550.24C270.272 550.24 271.976 549.472 273.008 547.96L270.584 546.304ZM265.424 543.4C265.952 540.832 269.936 540.856 270.272 543.4H265.424ZM281.331 538.552C279.675 538.552 278.235 539.104 277.035 540.184C275.835 541.264 275.235 542.656 275.235 544.36C275.235 546.064 275.835 547.48 277.035 548.584C278.235 549.688 279.675 550.24 281.331 550.24C283.347 550.24 285.147 549.352 286.203 547.84L283.491 545.92C283.011 546.664 282.291 547.048 281.331 547.048C280.587 547.048 279.939 546.808 279.387 546.304C278.835 545.8 278.547 545.152 278.547 544.36C278.547 543.592 278.835 542.968 279.387 542.488C279.939 541.984 280.587 541.744 281.331 541.744C282.291 541.744 283.011 542.128 283.491 542.872L286.203 540.928C285.123 539.416 283.323 538.552 281.331 538.552ZM292.884 534.496H289.572V538.792H287.532V541.432H289.572V550H292.884V541.432H295.236V538.792H292.884V534.496ZM301.65 545.776C302.442 545.992 302.754 546.256 302.754 546.736C302.754 547.288 302.154 547.648 301.386 547.672C300.498 547.672 299.754 547.048 299.73 546.376H296.61C296.634 547.552 297.09 548.512 298.026 549.208C298.962 549.904 300.066 550.24 301.29 550.24C302.586 550.24 303.714 549.928 304.674 549.328C305.658 548.728 306.138 547.864 306.138 546.736C306.138 546.064 306.042 545.44 305.058 544.504C304.578 544.048 303.93 543.688 303.09 543.472L301.194 542.968C300.57 542.8 300.234 542.536 300.21 542.128C300.186 541.624 300.642 541.288 301.386 541.288C302.226 541.288 302.634 541.624 302.658 542.272H305.802C305.778 541 305.322 540.064 304.434 539.464C303.546 538.864 302.466 538.552 301.194 538.552C300.018 538.552 299.01 538.888 298.146 539.536C297.282 540.184 296.85 540.904 296.826 541.744C296.802 542.44 296.85 542.824 297.21 543.592C297.594 544.336 298.626 544.984 300.186 545.392L301.65 545.776Z" fill="black"/>
<rect x="56" y="716" width="260" height="60" rx="10" fill="#61E786"/>
<path d="M137.219 738.984C135.755 737.28 133.499 736.272 131.003 736.272C128.627 736.272 126.635 737.112 124.979 738.768C123.347 740.424 122.531 742.416 122.531 744.768C122.531 747.096 123.347 749.112 124.979 750.768C126.635 752.424 128.627 753.24 131.003 753.24C133.475 753.24 135.443 752.496 136.883 751.032C138.347 749.544 139.067 747.312 139.067 744.312H130.571V747.168H135.011C134.987 748.008 134.555 748.68 133.715 749.232C132.875 749.76 131.963 750.024 131.003 750.024C129.635 750.024 128.459 749.52 127.499 748.488C126.539 747.456 126.059 746.208 126.059 744.768C126.059 743.328 126.539 742.104 127.475 741.072C128.435 740.04 129.611 739.536 131.003 739.536C132.419 739.536 133.643 740.088 134.627 741.216L137.219 738.984ZM149.096 749.304C148.544 750 147.728 750.36 146.648 750.36C145.328 750.36 144.056 749.712 143.888 748.488H152.096C152.12 748.104 152.144 747.768 152.144 747.456C152.144 745.704 151.592 744.288 150.488 743.208C149.408 742.104 148.04 741.552 146.408 741.552C144.752 741.552 143.36 742.08 142.232 743.16C141.104 744.24 140.552 745.632 140.552 747.36C140.552 749.088 141.104 750.504 142.232 751.608C143.36 752.688 144.752 753.24 146.408 753.24C148.784 753.24 150.488 752.472 151.52 750.96L149.096 749.304ZM143.936 746.4C144.464 743.832 148.448 743.856 148.784 746.4H143.936ZM158.693 737.496H155.381V741.792H153.341V744.432H155.381V753H158.693V744.432H161.045V741.792H158.693V737.496ZM168.001 748.152C168.001 749.664 168.553 750.888 169.657 751.848C170.761 752.784 172.201 753.264 174.001 753.264C176.041 753.264 177.865 752.64 179.041 751.128C179.641 750.36 179.929 749.448 179.953 748.416C180.025 745.992 178.513 744.312 175.417 743.424L173.449 742.8C172.273 742.464 171.673 741.912 171.673 741.12C171.673 740.16 172.561 739.464 173.809 739.464C175.177 739.464 175.945 740.208 175.945 741.336H179.449C179.449 739.776 178.921 738.552 177.865 737.64C176.833 736.728 175.489 736.272 173.857 736.272C172.249 736.272 170.881 736.728 169.801 737.664C168.721 738.576 168.169 739.752 168.169 741.216C168.169 743.496 169.585 745.08 172.441 745.968L174.433 746.52C175.993 746.976 176.449 747.552 176.425 748.392C176.401 749.448 175.441 750.144 174.001 750.144C172.489 750.144 171.601 749.28 171.529 748.152H168.001ZM186.677 737.496H183.365V741.792H181.325V744.432H183.365V753H186.677V744.432H189.029V741.792H186.677V737.496ZM202.527 753V741.792H199.215V743.04C198.447 741.96 197.007 741.552 195.951 741.552C194.439 741.552 193.119 742.104 191.967 743.184C190.815 744.264 190.239 745.656 190.239 747.384C190.239 749.112 190.815 750.528 191.967 751.608C193.119 752.688 194.439 753.216 195.951 753.216C196.479 753.216 197.079 753.096 197.727 752.832C198.399 752.568 198.903 752.208 199.215 751.728V753H202.527ZM196.503 750.048C195.759 750.048 195.111 749.808 194.535 749.304C193.983 748.8 193.695 748.152 193.695 747.384C193.695 746.616 193.983 745.992 194.535 745.488C195.111 744.984 195.759 744.72 196.503 744.72C197.943 744.72 199.215 745.776 199.215 747.384C199.215 748.992 197.943 750.048 196.503 750.048ZM208.942 749.088C208.942 746.112 209.878 744.624 211.726 744.624C212.398 744.624 212.974 744.744 213.43 744.96L214.03 741.96C213.478 741.696 212.854 741.552 212.11 741.552C210.838 741.552 209.494 742.56 208.942 744.504V741.792H205.606V753H208.942V749.088ZM220.123 737.496H216.811V741.792H214.771V744.432H216.811V753H220.123V744.432H222.475V741.792H220.123V737.496ZM232.228 749.304C231.676 750 230.86 750.36 229.78 750.36C228.46 750.36 227.188 749.712 227.02 748.488H235.228C235.252 748.104 235.276 747.768 235.276 747.456C235.276 745.704 234.724 744.288 233.62 743.208C232.54 742.104 231.172 741.552 229.54 741.552C227.884 741.552 226.492 742.08 225.364 743.16C224.236 744.24 223.684 745.632 223.684 747.36C223.684 749.088 224.236 750.504 225.364 751.608C226.492 752.688 227.884 753.24 229.54 753.24C231.916 753.24 233.62 752.472 234.652 750.96L232.228 749.304ZM227.068 746.4C227.596 743.832 231.58 743.856 231.916 746.4H227.068ZM245.544 747.36C245.544 748.92 244.392 750.072 242.952 750.072C241.512 750.072 240.36 748.992 240.36 747.36C240.36 745.8 241.512 744.696 242.952 744.696C244.392 744.696 245.544 745.728 245.544 747.36ZM248.928 735.696H245.616V743.16C245.064 742.176 243.768 741.552 242.328 741.552C240.84 741.552 239.568 742.104 238.488 743.184C237.432 744.264 236.904 745.68 236.904 747.432C236.904 749.136 237.432 750.552 238.488 751.632C239.568 752.712 240.84 753.24 242.328 753.24C243.768 753.24 245.064 752.64 245.616 751.608V753H248.928V735.696Z" fill="white"/>
</svg>
